<svg width="31" height="31" viewBox="0 0 31 31" fill="none" xmlns="http://www.w3.org/2000/svg">
<rect width="31" height="31" fill="#F5F5F5"/>
<g id="Dashboard" clip-path="url(#clip0_0_1)">
<rect width="1440" height="1024" transform="translate(-22 -357)" fill="white"/>
<g id="Group 1">
<rect id="Rectangle 3" x="-22" y="-357" width="330" height="1024" fill="#F24044"/>
</g>
<g id="Group 10">
<path id="Rectangle 8" d="M-22 -16H248C264.569 -16 278 -2.56854 278 14V16C278 32.5685 264.569 46 248 46H-22V-16Z" fill="white"/>
<g id="bxs:dashboard">
<path id="Vector" d="M5.16667 16.7917H12.9167C13.2592 16.7917 13.5878 16.6556 13.83 16.4133C14.0722 16.1711 14.2083 15.8426 14.2083 15.5V5.16667C14.2083 4.8241 14.0722 4.49555 13.83 4.25332C13.5878 4.01109 13.2592 3.875 12.9167 3.875H5.16667C4.8241 3.875 4.49555 4.01109 4.25332 4.25332C4.01109 4.49555 3.875 4.8241 3.875 5.16667V15.5C3.875 15.8426 4.01109 16.1711 4.25332 16.4133C4.49555 16.6556 4.8241 16.7917 5.16667 16.7917ZM3.875 25.8333C3.875 26.1759 4.01109 26.5044 4.25332 26.7467C4.49555 26.9889 4.8241 27.125 5.16667 27.125H12.9167C13.2592 27.125 13.5878 26.9889 13.83 26.7467C14.0722 26.5044 14.2083 26.1759 14.2083 25.8333V20.6667C14.2083 20.3241 14.0722 19.9956 13.83 19.7533C13.5878 19.5111 13.2592 19.375 12.9167 19.375H5.16667C4.8241 19.375 4.49555 19.5111 4.25332 19.7533C4.01109 19.9956 3.875 20.3241 3.875 20.6667V25.8333ZM16.7917 25.8333C16.7917 26.1759 16.9278 26.5044 17.17 26.7467C17.4122 26.9889 17.7408 27.125 18.0833 27.125H25.8333C26.1759 27.125 26.5044 26.9889 26.7467 26.7467C26.9889 26.5044 27.125 26.1759 27.125 25.8333V16.7917C27.125 16.4491 26.9889 16.1206 26.7467 15.8783C26.5044 15.6361 26.1759 15.5 25.8333 15.5H18.0833C17.7408 15.5 17.4122 15.6361 17.17 15.8783C16.9278 16.1206 16.7917 16.4491 16.7917 16.7917V25.8333ZM18.0833 12.9167H25.8333C26.1759 12.9167 26.5044 12.7806 26.7467 12.5383C26.9889 12.2961 27.125 11.9676 27.125 11.625V5.16667C27.125 4.8241 26.9889 4.49555 26.7467 4.25332C26.5044 4.01109 26.1759 3.875 25.8333 3.875H18.0833C17.7408 3.875 17.4122 4.01109 17.17 4.25332C16.9278 4.49555 16.7917 4.8241 16.7917 5.16667V11.625C16.7917 11.9676 16.9278 12.2961 17.17 12.5383C17.4122 12.7806 17.7408 12.9167 18.0833 12.9167Z" fill="#F3585E"/>
</g>
</g>
</g>
<defs>
<clipPath id="clip0_0_1">
<rect width="1440" height="1024" fill="white" transform="translate(-22 -357)"/>
</clipPath>
</defs>
</svg>
