<svg width="24" height="24" viewBox="0 0 24 24" fill="none" xmlns="http://www.w3.org/2000/svg">
<g clip-path="url(#clip0_4_75)">
<path d="M11.3603 0C15.1811 0 18.2783 3.0792 18.2783 6.8784C18.2787 7.87389 18.0621 8.85751 17.6434 9.76069C17.2248 10.6639 16.6142 11.4649 15.8543 12.108C16.1783 12.2688 16.4735 12.4296 16.7399 12.5916C17.3135 12.9396 17.9087 13.3716 18.5279 13.8864C18.6115 13.9557 18.6804 14.0409 18.7309 14.137C18.7813 14.2331 18.8122 14.3382 18.8218 14.4463C18.8314 14.5544 18.8195 14.6633 18.7868 14.7668C18.754 14.8703 18.7011 14.9663 18.6311 15.0492C18.4893 15.2175 18.2867 15.3228 18.0674 15.3422C17.8482 15.3615 17.6302 15.2933 17.4611 15.1524C16.9615 14.7298 16.4312 14.3447 15.8747 14.0004C15.3328 13.6808 14.7695 13.3989 14.1887 13.1568C13.2988 13.554 12.3349 13.7584 11.3603 13.7568C10.286 13.7584 9.22599 13.5098 8.26433 13.0308L8.21393 13.0548C5.87393 13.962 4.16633 15.3036 3.06353 17.0844C1.95713 18.8712 1.50473 20.868 1.70753 23.1012C1.71691 23.2095 1.70486 23.3185 1.67205 23.4222C1.63924 23.5258 1.58633 23.6219 1.51633 23.705C1.44634 23.7882 1.36064 23.8567 1.26414 23.9067C1.16764 23.9567 1.06222 23.9872 0.953931 23.9964C0.735484 24.0164 0.518019 23.9489 0.349279 23.8088C0.180539 23.6686 0.0743156 23.4672 0.0539311 23.2488C-0.180069 20.6664 0.352731 18.3132 1.64993 16.2192C2.78993 14.376 4.46633 12.9432 6.65873 11.9208C5.95984 11.28 5.40196 10.5008 5.02059 9.63268C4.63921 8.76457 4.44269 7.82659 4.44353 6.8784C4.44353 3.0792 7.53953 0 11.3603 0ZM20.2415 15.2316C20.6975 15.2316 21.0671 15.6036 21.0671 16.0608V18.1632H23.1695C23.2784 18.1629 23.3862 18.184 23.4869 18.2254C23.5875 18.2668 23.679 18.3277 23.7561 18.4044C23.8333 18.4812 23.8945 18.5725 23.9363 18.673C23.9782 18.7734 23.9998 18.8812 23.9999 18.99C23.999 19.2094 23.911 19.4194 23.7553 19.574C23.5996 19.7286 23.3889 19.815 23.1695 19.8144H21.0671V21.918C21.0675 22.1374 20.9807 22.3479 20.8259 22.5034C20.6711 22.6589 20.4609 22.7466 20.2415 22.7472C20.0221 22.7466 19.812 22.6589 19.6572 22.5034C19.5024 22.3479 19.4156 22.1374 19.4159 21.918V19.8144H17.3135C17.0941 19.815 16.8835 19.7286 16.7278 19.574C16.5721 19.4194 16.4841 19.2094 16.4831 18.99C16.4831 18.534 16.8551 18.1644 17.3135 18.1644L19.4159 18.1632V16.0608C19.4156 15.8414 19.5024 15.6309 19.6572 15.4754C19.812 15.3199 20.0221 15.2322 20.2415 15.2316ZM11.3615 1.6512C8.45753 1.6512 6.10313 3.9912 6.10313 6.8784C6.10313 9.7656 8.45753 12.1068 11.3603 12.1068C14.2643 12.1068 16.6175 9.7668 16.6175 6.8784C16.6175 3.9912 14.2643 1.6512 11.3615 1.6512Z" fill="white"/>
</g>
<defs>
<clipPath id="clip0_4_75">
<rect width="24" height="24" fill="white"/>
</clipPath>
</defs>
</svg>
